#!OML:ASF E:\inclinewalkrobotboard\Project 1\Capture day 1\Session 1\subject1.ASF
:FULLY-SPECIFIED
:DEGREES
112
root 6.74214 16.6062 35.0384 -169.717 -1.17697 178.633
lowerback -8.67223 2.23765 -5.54424
upperback 0.532517 3.49635 0.819339
thorax 5.04131 1.56043 4.41403
lowerneck -4.8773 2.50087 -0.997487
upperneck 9.99893 3.15684 1.1934
head 4.10248 1.5024 0.72812
rclavicle 1.66482e-014 2.22639e-014
rhumerus -36.9632 -30.6868 -74.9773
rradius 20.0911
rwrist 25.6637
rhand -17.8417 -42.964
rfingers 7.12502
rthumb 8.42314 -72.776
lclavicle 1.66482e-014 2.22639e-014
lhumerus -26.4274 0.386622 91.4378
lradius 15.5964
lwrist -30.3515
lhand -25.8133 -22.0808
lfingers 7.12502
lthumb 0.726035 7.89769
rfemur -6.50762 0.620686 19.7002
rtibia 7.97618
rfoot -11.7695 -4.30731
rtoes -30.2442
lfemur -9.289 -10.3042 -19.3135
ltibia 11.2561
lfoot -14.8711 1.30673
ltoes -59.4863
113
root 6.7484 16.6062 35.039 -169.689 -1.14624 178.641
lowerback -8.68417 2.22954 -5.58529
upperback 0.523174 3.48844 0.848772
thorax 5.03494 1.55539 4.46744
lowerneck -4.96338 2.49297 -0.995148
upperneck 10.0656 3.1418 1.23088
head 4.1432 1.4963 0.742042
rclavicle -3.8266e-014 4.77083e-015
rhumerus -36.9863 -30.8529 -74.8444
rradius 19.9486
rwrist 25.5204
rhand -17.8348 -42.77
rfingers 7.12502
rthumb 8.42979 -72.5818
lclavicle -3.8266e-014 4.77083e-015
lhumerus -26.4573 0.831827 91.2886
lradius 15.4191
lwrist -30.8375
lhand -25.6903 -22.2848
lfingers 7.12502
lthumb 0.844873 7.69328
rfemur -6.57627 0.548711 19.7266
rtibia 8.04878
rfoot -11.7883 -4.22244
rtoes -30.7709
lfemur -9.31086 -10.2219 -19.2571
ltibia 11.2168
lfoot -14.8489 1.28951
ltoes -59.5718
114
root 6.75622 16.607 35.0391 -169.682 -1.08226 178.62
lowerback -8.66767 2.21813 -5.68713
upperback 0.507857 3.48015 0.885852
thorax 5.0024 1.54957 4.56118
lowerneck -5.05517 2.44985 -1.09631
upperneck 10.2319 3.07281 1.36733
head 4.21847 1.46172 0.806045
rclavicle -7.35503e-015 1.31198e-014
rhumerus -37.1061 -31.221 -74.4772
rradius 19.8919
rwrist 26.2945
rhand -18.4381 -42.1514
rfingers 7.12502
rthumb 7.84751 -71.9858
lclavicle -7.35503e-015 1.31198e-014
lhumerus -26.5049 1.38448 91.106
lradius 15.2027
lwrist -31.3855
lhand -25.7446 -22.4881
lfingers 7.12502
lthumb 0.79244 7.49019
rfemur -6.59596 0.430658 19.7134
rtibia 8.05158
rfoot -11.7835 -4.07357
rtoes -31.1415
lfemur -9.28909 -10.1308 -19.2365
ltibia 11.2007
lfoot -14.9125 1.25567
ltoes -59.6074
115
root 6.76595 16.6081 35.0418 -169.653 -0.986733 178.62
lowerback -8.62778 2.21272 -5.77676
upperback 0.470408 3.47648 0.912876
thorax 4.9341 1.54822 4.63588
lowerneck -5.20013 2.34673 -1.4614
upperneck 10.6245 2.90178 1.81421
head 4.3803 1.37588 1.0205
rclavicle 1.23743e-014 1.59028e-015
rhumerus -37.2078 -31.6211 -74.1118
rradius 19.7694
rwrist 27.0231
rhand -18.6116 -41.9591
rfingers 7.12502
rthumb 7.68009 -71.7997
lclavicle 1.23743e-014 1.59028e-015
lhumerus -26.5827 1.8155 90.9161
lradius 15.0305
lwrist -31.7023
lhand -25.6807 -22.4304
lfingers 7.12502
lthumb 0.854122 7.54764
rfemur -6.66194 0.437865 19.733
rtibia 8.06258
rfoot -11.7816 -3.93396
rtoes -30.7332
lfemur -9.28047 -9.96552 -19.1714
ltibia 11.1278
lfoot -14.962 1.17566
ltoes -59.6675
116
root 6.7731 16.608 35.0444 -169.659 -0.926918 178.54
lowerback -8.54836 2.18607 -5.86229
upperback 0.459381 3.44602 0.883155
thorax 4.87841 1.53371 4.6444
lowerneck -5.17097 2.35755 -1.5318
upperneck 10.6391 2.89587 2.0318
head 4.37584 1.37948 1.10569
rclavicle -1.63003e-014 -7.35503e-015
rhumerus -37.225 -31.8034 -73.9886
rradius 19.6221
rwrist 26.6453
rhand -18.1238 -42.3229
rfingers 7.12502
rthumb 8.15081 -72.1457
lclavicle -1.63003e-014 -7.35503e-015
lhumerus -26.6435 2.05726 90.7364
lradius 14.9042
lwrist -31.8264
lhand -25.43 -22.1957
lfingers 7.12502
lthumb 1.09623 7.78127
rfemur -6.69934 0.324621 19.6505
rtibia 8.1185
rfoot -11.7525 -3.73282
rtoes -30.6665
lfemur -9.22354 -9.81421 -19.2344
ltibia 11.0454
lfoot -14.9376 1.08484
ltoes -59.7918
117
root 6.78049 16.608 35.0452 -169.701 -0.926837 178.453
lowerback -8.43196 2.10032 -5.93619
upperback 0.469669 3.33375 0.869175
thorax 4.83403 1.47831 4.65276
lowerneck -5.04694 2.23171 -1.43985
upperneck 10.639 2.71591 1.9833
head 4.35646 1.28953 1.06111
rclavicle -2.45002e-014 -2.78299e-015
rhumerus -37.2238 -31.9331 -73.8622
rradius 19.5475
rwrist 26.355
rhand -17.9133 -42.6
rfingers 7.12502
rthumb 8.35396 -72.4148
lclavicle -2.45002e-014 -2.78299e-015
lhumerus -26.6654 2.49714 90.5033
lradius 14.7377
lwrist -32.1255
lhand -25.271 -21.9867
lfingers 7.12502
lthumb 1.24982 7.98943
rfemur -6.67077 0.220507 19.5742
rtibia 8.16792
rfoot -11.7509 -3.6394
rtoes -30.7086
lfemur -9.14006 -9.70795 -19.3107
ltibia 10.9813
lfoot -14.9006 1.00748
ltoes -59.9412
118
root 6.7928 16.6092 35.047 -169.695 -0.897474 178.58
lowerback -8.36142 2.03244 -5.86425
upperback 0.458286 3.22864 0.929494
thorax 4.79528 1.42943 4.65994
lowerneck -5.09804 1.91396 -1.62912
upperneck 11.1563 2.25773 2.09589
head 4.5616 1.04732 1.11733
rclavicle 2.24627e-014 1.19271e-015
rhumerus -37.3112 -32.3695 -73.4614
rradius 19.3805
rwrist 26.626
rhand -17.9261 -42.3657
rfingers 7.12502
rthumb 8.34169 -72.181
lclavicle 2.24627e-014 1.19271e-015
lhumerus -26.6908 3.0118 90.2514
lradius 14.5497
lwrist -32.5292
lhand -25.3063 -21.817
lfingers 7.12502
lthumb 1.2157 8.15927
rfemur -6.72643 0.418031 19.7784
rtibia 8.23503
rfoot -11.7656 -3.74748
rtoes -30.0817
lfemur -9.16179 -9.56766 -19.0736
ltibia 10.9557
lfoot -14.9756 0.941906
ltoes -60.1133
119
root 6.80718 16.6095 35.0499 -169.649 -0.791477 178.729
lowerback -8.32024 2.05913 -5.75498
upperback 0.427441 3.24876 0.942188
thorax 4.74211 1.44455 4.61068
lowerneck -5.4124 1.88251 -1.74911
upperneck 11.5572 2.1739 2.41972
head 4.7711 1.0112 1.25642
rclavicle -9.24349e-015 -1.98785e-015
rhumerus -37.6106 -33.1848 -72.8519
rradius 19.1484
rwrist 26.9129
rhand -18.5456 -41.9723
rfingers 7.12502
rthumb 7.74371 -71.8105
lclavicle -9.24349e-015 -1.98785e-015
lhumerus -26.7372 3.21124 90.0304
lradius 14.4038
lwrist -32.8268
lhand -25.3095 -21.8021
lfingers 7.12502
lthumb 1.21263 8.17423
rfemur -6.89857 0.651244 20.0119
rtibia 8.37532
rfoot -11.8001 -3.809
rtoes -29.5986
lfemur -9.2344 -9.38162 -18.7875
ltibia 10.9506
lfoot -15.1395 0.895434
ltoes -60.249
120
root 6.82289 16.6077 35.0517 -169.586 -0.627021 178.79
lowerback -8.28379 2.12378 -5.72319
upperback 0.390128 3.32947 0.903364
thorax 4.67664 1.48865 4.55743
lowerneck -5.82406 1.82158 -1.70164
upperneck 12.4619 2.01205 2.7912
head 4.64035 0.959404 1.24332
rclavicle 5.06901e-015 -1.78906e-015
rhumerus -38.028 -34.2308 -72.0958
rradius 18.9942
rwrist 27.4721
rhand -19.172 -42.1783
rfingers 7.12502
rthumb 7.13915 -72.0379
lclavicle 5.06901e-015 -1.78906e-015
lhumerus -26.7485 3.40792 89.7967
lradius 14.2296
lwrist -33.2448
lhand -25.2995 -21.8086
lfingers 7.12502
lthumb 1.22228 8.1676
rfemur -7.1168 0.652313 20.1289
rtibia 8.54789
rfoot -11.7971 -3.62927
rtoes -29.9247
lfemur -9.28159 -9.12414 -18.6199
ltibia 10.8941
lfoot -15.2253 0.833715
ltoes -60.3518
121
root 6.84268 16.6055 35.0534 -169.506 -0.460733 178.9
lowerback -8.26905 2.17492 -5.70734
upperback 0.343473 3.39272 0.900405
thorax 4.61279 1.52332 4.54969
lowerneck -5.97713 1.30884 -1.88402
upperneck 13.371 1.22851 3.06154
head 4.9603 0.56061 1.31965
rclavicle 4.5969e-015 -7.55382e-015
rhumerus -38.4378 -35.271 -71.3024
rradius 18.7714
rwrist 27.6565
rhand -20.968 -42.8039
rfingers 7.12502
rthumb 5.40528 -72.7149
lclavicle 4.5969e-015 -7.55382e-015
lhumerus -26.7325 3.8247 89.5114
lradius 13.9894
lwrist -33.854
lhand -25.403 -21.8088
lfingers 7.12502
lthumb 1.12233 8.16797
rfemur -7.37347 0.592902 20.3131
rtibia 8.77434
rfoot -11.7617 -3.36226
rtoes -30.1112
lfemur -9.34388 -8.8976 -18.3702
ltibia 10.8418
lfoot -15.2583 0.823951
ltoes -60.4085
122
root 6.86402 16.6056 35.0521 -169.495 -0.364632 178.956
lowerback -8.21436 2.1608 -5.7788
upperback 0.317027 3.37552 0.918524
thorax 4.55119 1.51568 4.60307
lowerneck -6.3048 1.30832 -1.66465
upperneck 13.7738 1.17373 3.1206
head 5.14298 0.544954 1.30384
rclavicle -1.9307e-014 -1.66979e-014
rhumerus -39.0194 -36.3308 -70.3307
rradius 18.5706
rwrist 28.1531
rhand -22.6514 -42.8693
rfingers 7.12502
rthumb 3.7797 -72.8155
lclavicle -1.9307e-014 -1.66979e-014
lhumerus -26.7233 4.49236 89.142
lradius 13.6854
lwrist -34.5804
lhand -25.5589 -21.9885
lfingers 7.12502
lthumb 0.971759 7.989
rfemur -7.51804 0.614068 20.4587
rtibia 8.98864
rfoot -11.8431 -3.20656
rtoes -29.2694
lfemur -9.29363 -8.84368 -18.2052
ltibia 10.7555
lfoot -15.295 0.903558
ltoes -60.4122
123
root 6.88444 16.6057 35.0479 -169.487 -0.27085 178.827
lowerback -8.19511 2.07957 -5.98491
upperback 0.310694 3.2869 0.891827
thorax 4.53486 1.46782 4.68039
lowerneck -6.79975 1.19264 -1.7122
upperneck 14.5928 0.934174 3.35218
head 5.48573 0.429915 1.37764
rclavicle -1.06847e-014 4.17448e-015
rhumerus -39.5861 -36.9922 -69.5906
rradius 18.511
rwrist 28.5326
rhand -22.3062 -42.502
rfingers 7.12502
rthumb 4.11306 -72.442
lclavicle -1.06847e-014 4.17448e-015
lhumerus -26.6874 5.48066 88.6558
lradius 13.3064
lwrist -35.5221
lhand -25.6768 -22.0999
lfingers 7.12502
lthumb 0.857885 7.87813
rfemur -7.6071 0.682026 20.4006
rtibia 9.15032
rfoot -11.979 -3.14129
rtoes -28.5667
lfemur -9.19561 -8.85639 -18.2958
ltibia 10.6287
lfoot -15.3256 0.999284
ltoes -60.4749
124
root 6.90754 16.6042 35.0464 -169.414 -0.0910328 178.681
lowerback -8.26573 1.97553 -6.18765
upperback 0.311753 3.17297 0.870714
thorax 4.58051 1.40461 4.76408
lowerneck -7.15539 1.00446 -2.01016
upperneck 15.5209 0.590084 3.65603
head 5.84288 0.248547 1.50695
rclavicle -2.92462e-014 4.37326e-015
rhumerus -39.8475 -37.3553 -69.1574
rradius 18.1975
rwrist 28.275
rhand -23.7198 -42.33
rfingers 7.12502
rthumb 2.74795 -72.2921
lclavicle -2.92462e-014 4.37326e-015
lhumerus -26.6512 6.50038 88.1766
lradius 12.9643
lwrist -36.5282
lhand -25.9429 -22.2576
lfingers 7.12502
lthumb 0.600886 7.72131
rfemur -7.81117 0.832838 20.3304
rtibia 9.36134
rfoot -12.0586 -3.08837
rtoes -28.3761
lfemur -9.23826 -8.85868 -18.3919
ltibia 10.6202
lfoot -15.4218 1.15447
ltoes -60.5677
125
root 6.93458 16.6034 35.0446 -169.366 0.0312502 178.753
lowerback -8.33949 1.85121 -6.20349
upperback 0.349554 3.0117 0.958861
thorax 4.67667 1.31912 4.85353
lowerneck -7.62594 0.946069 -2.05034
upperneck 16.2502 0.457453 3.69393
head 6.15757 0.175269 1.52354
rclavicle -1.18028e-014 -7.35503e-015
rhumerus -40.1769 -38.2028 -68.2073
rradius 17.7024
rwrist 29.4143
rhand -25.9442 -42.3643
rfingers 7.12502
rthumb 0.59963 -72.3432
lclavicle -1.18028e-014 -7.35503e-015
lhumerus -26.6934 7.00513 87.9359
lradius 12.7836
lwrist -37.1382
lhand -26.5899 -22.5876
lfingers 7.12502
lthumb -0.0239713 7.39211
rfemur -8.00124 0.893437 20.537
rtibia 9.60806
rfoot -12.207 -2.96702
rtoes -27.8149
lfemur -9.32276 -8.90364 -18.2057
ltibia 10.7361
lfoot -15.5764 1.32391
ltoes -60.6125
